# xmcd CD database file
#
# Track frame offsets:
#	150
#	16405
#	36185
#	61507
#	93055
#	112975
#	134035
#	156287
#	179760
#	199060
#	221537
#	232835
#	257162
#
# Disc length: 3720 seconds
#
# Revision: 0
# Processed by: cddbd v1.5PL3 Copyright (c) Steve Scherf et al.
# Submitted via: CDex 1.50Beta3
#
DISCID=ad0e860d
DTITLE=Harry Allen - When I Grow Too Old To Dream
DYEAR=1900
DGENRE=Jazz
TTITLE0=When I Grow Too Old To Dream
TTITLE1=Nagasaki
TTITLE2=Here's That Rainy Day
TTITLE3=Wouldn't It Be Loverly?
TTITLE4=You're My Everything
TTITLE5=Gravy Waltz
TTITLE6=I Wish You Love
TTITLE7=Lulu's Back In Town
TTITLE8=I Guess I'll Have To Change My Plan
TTITLE9=Ding-Dong,The Witch Is Dead
TTITLE10=Detour Ahead
TTITLE11=Love Walked In
TTITLE12=All The Things You Are
EXTD=
EXTT0=
EXTT1=
EXTT2=
EXTT3=
EXTT4=
EXTT5=
EXTT6=
EXTT7=
EXTT8=
EXTT9=
EXTT10=
EXTT11=
EXTT12=
PLAYORDER=
